<?xml version="1.0" encoding="UTF-8"?>
<!-- Generated by Pixelmator Pro 2.3.8 -->
<svg width="512" height="512" viewBox="0 0 512 512" xmlns="http://www.w3.org/2000/svg" xmlns:xlink="http://www.w3.org/1999/xlink">
    <path id="Ellipse" fill="#2aa12c" fill-rule="evenodd" stroke="none" d="M 436 204 C 436 104.588745 355.411255 24 256 24 C 156.588745 24 76 104.588745 76 204 C 76 303.411255 156.588745 384 256 384 C 355.411255 384 436 303.411255 436 204 Z"/>
    <path id="Rounded-Rectangle" fill="#2aa12c" fill-rule="evenodd" stroke="none" d="M 231.5 420 C 227.081757 420 223.5 423.581757 223.5 428 L 223.5 476 C 223.5 480.418243 227.081757 484 231.5 484 L 279.5 484 C 283.918243 484 287.5 480.418243 287.5 476 L 287.5 428 C 287.5 423.581757 283.918243 420 279.5 420 Z"/>
    <path id="Line" fill="#2aa12c" fill-rule="evenodd" stroke="#2aa12c" stroke-width="4" stroke-linecap="round" stroke-linejoin="round" d="M 285.000061 425 L 311.000031 374"/>
    <path id="path1" fill="#2aa12c" fill-rule="evenodd" stroke="#2aa12c" stroke-width="4" stroke-linecap="round" stroke-linejoin="round" d="M 198.999664 374.000183 L 225.000107 425"/>
</svg>
