<?xml version="1.0" encoding="UTF-8"?>
<!-- Generated by Pixelmator Pro 2.3.8 -->
<svg width="700" height="700" viewBox="0 0 700 700" xmlns="http://www.w3.org/2000/svg" xmlns:xlink="http://www.w3.org/1999/xlink">
    <path id="Ellipse-copy" fill="#2aa12c" fill-rule="evenodd" stroke="none" d="M 530 300 C 530 200.588745 449.411255 120 350 120 C 250.588745 120 170 200.588745 170 300 C 170 399.411255 250.588745 480 350 480 C 449.411255 480 530 399.411255 530 300 Z"/>
    <path id="Rounded-Rectangle-copy" fill="#2aa12c" fill-rule="evenodd" stroke="none" d="M 325.5 516 C 321.081757 516 317.5 519.581787 317.5 524 L 317.5 572 C 317.5 576.418213 321.081757 580 325.5 580 L 373.5 580 C 377.918243 580 381.5 576.418213 381.5 572 L 381.5 524 C 381.5 519.581787 377.918243 516 373.5 516 Z"/>
    <path id="Line-copy" fill="#2aa12c" fill-rule="evenodd" stroke="#2aa12c" stroke-width="16" stroke-linecap="round" stroke-linejoin="round" d="M 379.000061 521 L 405.000031 470"/>
    <path id="path1-copy" fill="#2aa12c" fill-rule="evenodd" stroke="#2aa12c" stroke-width="16" stroke-linecap="round" stroke-linejoin="round" d="M 292.999664 470.000183 L 319.000092 521"/>
</svg>
